<?xml version="1.0" encoding="UTF-8"?>
<svg width="314px" height="138px" viewBox="0 0 314 138" version="1.1" xmlns="http://www.w3.org/2000/svg" xmlns:xlink="http://www.w3.org/1999/xlink">
    <title>Group</title>
    <g id="Prototype-2" stroke="none" stroke-width="1" fill="none" fill-rule="evenodd">
        <g id="Tillit---homepage" transform="translate(-563.000000, -3492.000000)" fill="#141458">
            <g id="Footer" transform="translate(0.000000, 3380.000000)">
                <g id="Group-13" transform="translate(0.000000, 50.000000)">
                    <g id="Group" transform="translate(563.000000, 62.000000)">
                        <path d="M49.9769783,138 C26.632082,138 17.6401749,128.870852 17.6401749,105.694496 L17.6401749,65.6645508 L0,65.6645508 L0,37.9243889 L18.1571407,37.9243889 L18.1571407,12.9913673 L46.864624,0 L46.864624,37.9243889 L69,37.9243889 L69,65.6645508 L46.864624,65.6645508 L46.864624,99.7259598 C46.864624,108.151986 50.6687775,111.490112 56.7231674,111.490112 C61.0442867,111.490112 64.8507009,110.437336 69,107.802338 L69,134.490494 C63.2930179,136.420071 56.0313683,138 49.9769783,138 Z" id="Fill-1"></path>
                        <path d="M110,135 L110,38 L79,38 L79,135 L110,135 Z" id="Fill-4"></path>
                        <path d="M151,135 L151,0 L120,0 L120,135 L151,135 Z" id="Fill-6"></path>
                        <path d="M194,135 L194,0 L163,0 L163,135 L194,135 Z" id="Fill-7"></path>
                        <path d="M235,135 L235,38 L204,38 L204,135 L235,135 Z" id="Fill-8"></path>
                        <path d="M294.976978,138 C271.632082,138 262.640175,128.870852 262.640175,105.694496 L262.640175,65.6645508 L245,65.6645508 L245,37.9243889 L263.157141,37.9243889 L263.157141,12.9913673 L291.864624,0 L291.864624,37.9243889 L314,37.9243889 L314,65.6645508 L291.864624,65.6645508 L291.864624,99.7259598 C291.864624,108.151986 295.668777,111.490112 301.723167,111.490112 C306.044287,111.490112 309.850701,110.437336 314,107.802338 L314,134.490494 C308.293018,136.420071 301.031368,138 294.976978,138 Z" id="Fill-9"></path>
                    </g>
                </g>
            </g>
        </g>
    </g>
</svg>